<svg xmlns="http://www.w3.org/2000/svg" width="960" viewBox="0 0 960 540" height="540" version="1.0"><defs><clipPath id="a"><path d="M 721 179 L 891.273438 179 L 891.273438 289 L 721 289 Z M 721 179"/></clipPath></defs><path fill="#F14624" d="M 391.546875 34.742188 C 385.625 35.027344 381.066406 40.128906 381.066406 46.058594 L 381.066406 133.832031 C 381.066406 142.226562 374.539062 149.378906 366.148438 149.675781 C 357.335938 149.992188 350.097656 142.941406 350.097656 134.199219 L 350.097656 46.058594 C 350.097656 40.128906 345.542969 35.027344 339.617188 34.742188 C 333.296875 34.445312 328.074219 39.488281 328.074219 45.75 L 328.074219 133.832031 C 328.074219 142.226562 321.546875 149.378906 313.15625 149.675781 C 304.34375 149.992188 297.109375 142.941406 297.109375 134.199219 L 297.109375 46.058594 C 297.109375 40.128906 292.550781 35.027344 286.628906 34.742188 C 280.304688 34.445312 275.085938 39.488281 275.085938 45.75 L 275.085938 161.390625 C 275.085938 185.136719 288.019531 205.871094 307.222656 216.917969 C 318.269531 223.265625 325.152344 234.964844 325.152344 247.703125 L 325.152344 351.292969 C 334.15625 359.957031 343.476562 368.601562 353.023438 377.097656 L 353.023438 247.703125 C 353.023438 234.964844 359.90625 223.265625 370.953125 216.917969 C 390.15625 205.871094 403.089844 185.136719 403.089844 161.390625 L 403.089844 45.75 C 403.089844 39.488281 397.871094 34.445312 391.546875 34.742188 Z M 497.886719 34.738281 C 464.628906 34.738281 437.671875 102.140625 437.671875 154.792969 C 437.671875 188.703125 448.855469 208.21875 465.699219 217.820312 C 476.886719 224.191406 483.953125 235.914062 483.953125 248.796875 L 483.953125 387.785156 C 493.421875 381.167969 502.742188 374.398438 511.824219 367.554688 L 511.824219 248.796875 C 511.824219 235.914062 518.886719 224.191406 530.078125 217.820312 C 546.921875 208.21875 558.101562 188.703125 558.101562 154.792969 C 558.101562 102.140625 531.148438 34.738281 497.886719 34.738281"/><path fill="#F68712" d="M 641.542969 17.003906 C 717.390625 65.808594 722.277344 189.140625 630.394531 290.792969 C 590.175781 335.289062 502.320312 408.667969 416.601562 454.335938 C 336.507812 399.394531 257.371094 316.679688 222.363281 267.976562 C 148.414062 165.109375 158.742188 53.03125 224.59375 5.070312 C 100.382812 34.460938 68.523438 197.476562 180.75 336.515625 C 224.234375 390.386719 320.757812 480.609375 416.601562 538.753906 C 512.4375 480.609375 608.96875 390.386719 652.453125 336.515625 C 753.980469 210.730469 737.5625 65.347656 641.542969 17.003906"/><g clip-path="url(#a)"><path fill="#2CA54A" d="M 891.238281 204.980469 C 891.238281 204.980469 752.292969 122.277344 721.433594 256.535156 C 821.707031 350.980469 891.238281 204.980469 891.238281 204.980469"/></g><path fill="#2CA54A" d="M 813.414062 0.179688 C 813.414062 0.179688 678.320312 35.789062 742.394531 136.105469 C 861.3125 131.449219 813.414062 0.179688 813.414062 0.179688"/><path fill="#2CA54A" d="M 614.648438 99.890625 C 614.648438 99.890625 710.332031 125.121094 664.957031 196.171875 C 580.71875 192.871094 614.648438 99.890625 614.648438 99.890625"/></svg>